<svg id="a" xmlns="http://www.w3.org/2000/svg" viewBox="0 0 107.6 107.6"><defs><style>.b{fill:#fff}</style></defs><path class="b" d="M57.3 33.7v19.2h4.2l1.3-1.3V35l-1.3-1.3h-4.2zM35.4 59.8h4.8L37.8 35l-2.4 24.8z"/><path class="b" d="M53.8 0a53.8 53.8 0 1 0 0 107.6A53.8 53.8 0 0 0 53.8 0Zm-28 30.5h-4l-1.4 1.3v16.8l-3.9 3.8 4 4v18.1l1.2 1.3h4.1v5.3h-7.7l-3.9-3.8v-21l-3.9-3.9 3.9-3.9V29.1l3.9-4h7.7v5.4Zm16 47.3L40.7 65H35l-1.2 12.7h-6.2l5.9-49.3h9l6 49.3h-6.5ZM69 54.2 65.1 58h-7.8v19.7H51V28.5h14l4 4v21.7Zm9.5 23.6h-6.2V28.5h6.2v49.3Zm14.9-.5-4 3.9h-7.6v-5.4h4l1.4-1.2V56.3l3.9-3.9-4-3.8V31.8L86 30.5h-4.1v-5.3h7.7l3.9 3.9v19.5l3.9 3.9-4 3.9v20.9Z"/></svg>