<svg xmlns="http://www.w3.org/2000/svg" viewBox="0 0 107.6 107.6"><path d="M53.8 0a53.8 53.8 0 1 0 0 107.6A53.8 53.8 0 0 0 53.8 0Zm27.6 53.1a15.7 15.7 0 0 1-6.8 8.8 22 22 0 0 1-8.4 3.3l-4.6.5.3.3 2.3 1.4a7 7 0 0 1 3 4.6c.2.8.4 1.7.4 2.6v3.7c0 2.7 0 5.5.2 8.2 0 .2 0 .4.2.6a8 8 0 0 0 2.5 2.5l.4.1c.4.4.4 1 0 1.3l-1 .2c-2 .2-3.8-.3-5.4-1.7a3.9 3.9 0 0 1-1.4-2.8V75.3c-.2-.8-.5-1.4-1.1-1.9l-1.4-.7V86c0 1 0 2 .3 3.1 0 .7.3 1.2.7 1.7.5.6.8 1.3 1 2-.4.4-.7.3-1 .2l-2.6-.7c-1-.6-2-1.4-2.4-2.5-.8-1.5-1-3.2-1-5V72.3h-2.8V85c0 1.5-.3 2.9-.8 4.3-.7 2-2.2 3.1-4.2 3.6l-1.3.1c-.3 0-.6 0-.9-.3l.3-.4a9.8 9.8 0 0 0 1.6-4l.2-2V72.6l-.4.2c-1 .4-1.7 1.2-1.8 2.4V86l-.1 1.2a4 4 0 0 1-1.7 2.8c-1 .7-2 1.1-3.2 1.3h-1.7l-.9-.1c-.6-.3-.7-1-.2-1.4l1-.7c.9-.6 1.6-1.3 2-2.4.2-.5.3-1.1.3-1.7l-.1-2.5-.2-4.4v-.2l-.3.1a11 11 0 0 1-4.2.5c-1.7-.2-3.2-.7-4.8-1.4a7.8 7.8 0 0 1-3.2-2.8l-1.6-2.5c-.8-1.6-2-3-3.4-4.3l-1.8-1.7c-.6-.5-.6-.7 0-1.2.6-.4 1.2-.5 2-.4 1.2.1 2.2.7 3 1.5l1.8 1.9 2 2.2c.9 1 2 1.7 3 2.2 2 1 4 1 6 .2l1-.5c.6-.3 1-.7 1.3-1.4a6.2 6.2 0 0 1 3.2-3.4l2-.8.5-.2-1-.2c-1.9-.1-3.8-.4-5.7-.9-2.7-.6-5.3-1.6-7.7-3-3.5-2-5.7-5-6.9-8.8a30.3 30.3 0 0 1-1-9.5c.3-4.2 1.6-8 4.4-11 .2-.3.3-.5.2-.7a16 16 0 0 1-.5-6.4 23.7 23.7 0 0 1 1.2-5.3 21.8 21.8 0 0 1 12 4.4c.2.2.4.2.6.2a38.6 38.6 0 0 1 12.8-1.3c2.8.1 5.6.5 8.4 1h.7c1.7-1.2 3.4-2.2 5.3-3a16.9 16.9 0 0 1 6.6-1.3l.2.7c.8 2.6 1.2 5.3 1 8l-.3 2.4.1.5c2.5 2.6 3.9 5.8 4.5 9.2.7 4.2.5 8.3-.7 12.3Z" style="fill:#fff"/></svg>