<svg xmlns="http://www.w3.org/2000/svg" viewBox="0 0 58.1 58.1"><path d="M29 0a29 29 0 1 0 0 58.1A29 29 0 0 0 29 0Zm1 44.4a11 11 0 0 1-18.4-11.7c1.8-3.2 3.6-6.4 5.7-9.5 2-3 5.1-4.4 8.2-4.5 3.4 0 6 1 8 3 2 1.8 2.4 4.6 1.1 7-.2.3-.4.8-.7 1-.5.5-1 .9-1.6 1-1 .3-1.6-.2-1.6-1.2a4.6 4.6 0 0 0-5.4-4.4c-1.3.2-2.4.9-3 2-2 3-3.8 6-5.6 9a4.5 4.5 0 0 0 1.6 6.2c2.1 1.3 4.8.7 6.3-1.3.6-1 .7-1 1.7-.5l2.4.8c1.6.5 2.1 1.6 1.2 3Zm16.9-19.5c-1.8 3.3-3.8 6.5-5.8 9.7a10.9 10.9 0 0 1-16.3 2c-2.4-2-2.9-5.5-.4-8.5.3-.3.7-.6 1.2-.7 1-.3 1.7.2 1.8 1.3a4.6 4.6 0 0 0 4.3 4.4c1.8.1 3.3-.6 4.2-2.2 1.9-2.9 3.6-5.8 5.4-8.8 1.3-2.1.6-4.8-1.4-6.2-2-1.4-4.8-.9-6.3 1.1-.7 1-1 1-2 .6l-2.4-.8c-1.4-.4-1.8-1.6-1.1-2.8a11 11 0 0 1 18.8 11Z" style="fill:#fff"/></svg>