<?xml version="1.0" encoding="UTF-8"?><svg id="a" xmlns="http://www.w3.org/2000/svg" viewBox="0 0 350 228.92"><defs><style>.b{fill:#fff;}.c{fill:#ead348;}.d{fill:#cdeafc;}</style></defs><path class="d" d="M117.78,120.52l55.39-61.33c3.65-4.04,1.56-10.51-3.77-11.65L83.32,29.1c-5.32-1.14-9.88,3.91-8.21,9.09l25.42,78.63,.02,.07c1.99,6,2.68,12.35,1.36,18.53l-14.02,65.5-31.39-6.72c-2.05-.44-4.22,.7-4.76,2.73-.58,2.16,.77,4.34,2.93,4.8l69.98,14.98c2.05,.44,4.22-.7,4.76-2.73,.58-2.16-.77-4.34-2.93-4.8l-31.6-6.77,14.13-66.02c1.29-6.02,4.51-11.34,8.71-15.83l.05-.06Z"/><path class="c" d="M114.69,111.9l54.78-60.8c1.5-1.66-.29-4.21-2.36-3.35-8.32,3.47-18.42,6.65-22.14,6.13-12.95-1.83-17.94,6.12-31.67,3.58-7.81-1.45-19.65-2.5-23.34-4.37,6.33,22.93,10.6,34.22,16.93,57.15,.99,3.58,5.43,4.53,7.79,1.67Z"/><path class="d" d="M228.33,120.01l-55.39-61.33c-3.65-4.04-1.56-10.51,3.77-11.65l86.08-18.43c5.32-1.14,9.88,3.91,8.21,9.09l-25.42,78.63-.02,.07c-1.99,6-2.68,12.35-1.36,18.53l14.02,65.5,31.39-6.72c2.05-.44,4.22,.7,4.76,2.73,.58,2.16-.77,4.34-2.93,4.8l-69.98,14.98c-2.05,.44-4.22-.7-4.76-2.73-.58-2.16,.77-4.34,2.93-4.8l31.6-6.77-14.13-66.02c-1.29-6.02-4.51-11.34-8.71-15.83l-.05-.06Z"/><path class="c" d="M231.42,111.4l-53.81-60.44c-.86-.96,.04-2.46,1.29-2.14,9.79,2.5,19.75,.18,24.43-.48,12.95-1.83,19.66,12.33,33.39,9.78,7.81-1.45,17.02-7.57,20.71-9.44-6.33,22.93-11.9,38.12-18.22,61.04-.99,3.58-5.43,4.53-7.79,1.67Z"/><path class="c" d="M170.04,39.31c.22-1.87,3.91-1.54,6.89-4.07,4.96-4.21,2.6-11.79,5.32-12.52,2.05-.55,5.48,3.22,6.26,7.2,1.01,5.2-2.84,9.09-3.44,9.7-3.01,3.04-8.09,4.89-11.89,3.13-1.31-.61-3.3-2.02-3.13-3.44Z"/><path class="c" d="M172.3,13.21c.09,1.27-2.32,2.11-1.99,3.58,.38,1.66,2.56,2.36,3.97,2.38,2.69,.05,6.44-2.87,5.16-3.97-6.13-5.3-7.37-5.17-7.15-1.99Z"/><path class="c" d="M167.59,37.12c-.34,1.3-4.86,2.51-6.47,.24-.9-1.26-.77-3.43,.24-4.07,1.79-1.14,6.63,2.31,6.23,3.83Z"/><path class="b" d="M350,115.45c0,2.5-1.91,4.55-4.39,4.8-16.18,1.66-18.59,12.67-18.59,20.78,0,7.66,1.13,15.32,2.27,22.98,1.14,7.66,2.27,15.61,2.27,23.27,0,28.66-17.88,38.87-41.14,38.87h-1.14c-2.66,0-4.83-2.16-4.83-4.83v-5.95c0-2.66,2.16-4.83,4.83-4.83h0c15.89-.29,22.7-8.8,22.7-24.69,0-6.81-1.14-13.33-1.99-20.43-1.13-6.81-2.27-13.91-2.27-21.57,0-18.16,7.95-27.81,20.43-30.93v-.57c-12.48-3.41-20.43-12.48-20.43-30.65,0-7.66,1.14-14.47,2.27-21.57,.85-6.81,1.99-13.62,1.99-20.15,0-15.33-5.96-24.12-22.42-24.41h-.28c-2.66,0-4.83-2.16-4.83-4.83V4.83C284.45,2.16,286.61,0,289.28,0h.85c24.12,0,41.43,11.07,41.43,37.18,0,7.94-1.14,15.6-2.27,23.55-1.14,7.94-2.27,15.89-2.27,23.84,0,9.15,2.41,19.26,18.55,20.8,2.5,.24,4.43,2.3,4.43,4.81v5.28Z"/><path class="b" d="M0,112.93c0-2.51,1.93-4.57,4.43-4.81,16.14-1.53,18.55-11.65,18.55-20.8,0-7.95-1.13-15.89-2.27-23.84-1.14-7.95-2.27-15.61-2.27-23.55,0-26.11,17.31-37.18,41.43-37.18h.85c2.66,0,4.83,2.16,4.83,4.83v5.96c0,2.66-2.16,4.83-4.83,4.83h-.28c-16.46,.28-22.42,9.08-22.42,24.41,0,6.53,1.14,13.33,1.99,20.15,1.13,7.09,2.27,13.91,2.27,21.57,0,18.16-7.95,27.24-20.43,30.65v.57c12.48,3.12,20.43,12.77,20.43,30.93,0,7.66-1.14,14.75-2.27,21.57-.85,7.09-1.99,13.62-1.99,20.43,0,15.89,6.81,24.41,22.7,24.69h0c2.66,0,4.83,2.16,4.83,4.83v5.95c0,2.66-2.16,4.83-4.83,4.83h-1.14c-23.27,0-41.14-10.21-41.14-38.87,0-7.66,1.14-15.61,2.27-23.27,1.14-7.66,2.27-15.32,2.27-22.98,0-8.11-2.41-19.12-18.59-20.78C1.91,122.75,0,120.7,0,118.2v-5.28Z"/></svg>