<svg id="a" xmlns="http://www.w3.org/2000/svg" viewBox="0 0 106.8 106.8"><defs><style>.b{fill:#fff}</style></defs><path class="b" d="m39.6 52.6 26-2.6 1.6-.3-3-14c-13.5 3.7-12 3.6-25.8 2.5l-.2 1-.3 12c0 1.3.5 1.5 1.7 1.4ZM62.3 31.2A34.3 34.3 0 0 0 56 20.8c-.8-.9-1.8-1.7-2.8-2.4-2.8-1.9-5.6-1.6-8 .8a13.8 13.8 0 0 0-2.9 4c-1.3 3.3-2.2 6.6-3.2 9.8v.5c8 1.6 15.5.9 23-2.3ZM32.2 53.3c.9 0 1.2-.3 1.2-1.3l.2-14.4c0-.4-.3-1-.6-1.1L29.5 35 23 31.5l-2.6 4.2a37 37 0 0 0-4.7 17.9c0 1 .3 1.4 1.4 1.2l15-1.4ZM38.8 19.5A37.8 37.8 0 0 0 26.2 28l8 4.1 4.6-12.7ZM68.4 34.3c1 4.6 2.1 9.1 3 13.7.3 1.1.6 1.4 1.7 1.3L87.4 48c2-.2 2-.2 1.5-2.2a36.9 36.9 0 0 0-11.5-19.5l-.5.3-8.1 6.5c-.3.3-.5 1-.4 1.3ZM73.9 23.3c-4.6-3-9.2-5-14-6L66.7 29l7-5.6ZM40.1 66.3c.4 1.9 1 3.8 1.6 5.9a43 43 0 0 1 25.5-2.6c.6-4.8.7-9.4.4-14 0-.9-.5-1-1.2-.9l-26.7 2.7c-.9 0-1.2.3-1 1.2l1.4 7.7Z"/><path class="b" d="M53.4 0a53.4 53.4 0 1 0 0 106.8A53.4 53.4 0 0 0 53.4 0Zm3.4 95.1a41.7 41.7 0 1 1-8-83 41.7 41.7 0 0 1 8 83Z"/><path class="b" d="M66.7 88c4.6-2 8.7-4.7 12.5-8.4l-8-4-4.5 12.3ZM37.2 73.2l-3.1-14c-.2-1-.6-1.3-1.6-1.2L18 59.5l-1.7.2A37 37 0 0 0 28 81.2l8.8-6.6c.3-.2.4-1 .3-1.4ZM88.5 52.5c-5 .6-10.2 1-15.3 1.5-.7.1-1 .4-1 1.2L71.8 70c0 .4.2 1 .5 1l10.1 5 2.7-4.3c3-5.6 4.7-11.5 4.7-17.9 0-.9-.2-1.4-1.3-1.3ZM31.9 84.3c4.5 2.9 9 4.8 13.8 5.7L39 78.7l-7 5.5ZM43.4 76.5c1.7 4 3.5 7.6 6.5 10.6.8.8 1.8 1.6 2.8 2.2 2.4 1.4 5 1.2 7-.7 4.2-3.8 5.4-9 6.7-14.4-8-1.6-15.5-.9-23 2.3Z"/></svg>