<svg id="a" xmlns="http://www.w3.org/2000/svg" viewBox="0 0 350 228.9"><defs><style>.b{fill:#ead348}.c{fill:#144073}.d{fill:#cdeafc}</style></defs><path class="d" d="m118 121 55-62c4-4 2-10-4-11L83 29c-5-1-10 4-8 9l26 79c2 6 2 12 1 18l-14 66-32-7c-2 0-4 1-4 3-1 2 1 4 3 5l70 15c2 0 4-1 4-3 1-2 0-4-3-5l-31-7 14-66c1-6 5-11 9-15v-1Z"/><path class="b" d="m115 112 54-61c2-2 0-4-2-3-8 3-18 6-22 6-13-2-18 6-32 3-8-1-19-2-23-4l17 57c1 4 5 5 8 2Z"/><path class="d" d="m228 120-55-61c-4-4-2-11 4-12l86-18c5-2 10 4 8 9l-25 78c-2 6-3 13-2 19l14 65 32-6c2-1 4 0 4 2 1 3 0 5-3 5l-70 15c-2 1-4 0-4-3-1-2 0-4 3-4l31-7-14-66c-1-6-4-11-9-16Z"/><path class="b" d="m231 111-53-60c-1-1 0-2 1-2 10 2 20 0 24-1 13-1 20 13 34 10 8-1 17-7 20-9l-18 61c-1 3-5 4-8 1ZM170 39c0-2 4-1 7-4 5-4 3-12 5-12 2-1 6 3 7 7 1 5-3 9-4 10-3 3-8 5-12 3-1-1-3-2-3-4ZM172 13l-2 4 4 2c3 0 7-3 5-4-6-5-7-5-7-2ZM168 37c-1 1-5 3-7 0v-4c2-1 7 3 7 4Z"/><path class="c" d="M350 117c0 2-2 4-4 5-17 1-19 12-19 20l2 23 3 24c0 28-18 39-42 39h-1c-2 0-5-3-5-5v-6c0-3 3-5 5-5 16 0 23-9 23-25l-2-20-2-22c0-18 8-28 20-31-12-4-20-13-20-31l2-21 2-21c0-15-6-24-22-24h-1c-2 0-5-2-5-5V6c0-2 3-5 5-5h1c24 0 42 11 42 38l-3 23-2 24c0 9 2 19 19 21 2 0 4 2 4 5v5ZM0 112c0-3 2-5 4-5 17-2 19-12 19-21l-2-24-3-23C18 12 36 1 60 1h1c2 0 5 3 5 5v6c0 3-3 5-5 5h-1c-16 0-22 9-22 24l2 21 2 21c0 18-8 27-20 31 12 3 20 13 20 31l-2 22-2 20c0 16 7 25 23 25 2 0 5 2 5 5v6c0 2-3 5-5 5h-1c-24 0-42-11-42-39l3-24 2-23c0-8-2-19-19-20-2-1-4-3-4-5v-5Z"/></svg>